<svg width="298.1116088867187px" height="155.36000366210936px" xmlns="http://www.w3.org/2000/svg" viewBox="100.94419555664064 -2.680001831054682 298.1116088867187 155.36000366210936" style="background: rgba(0, 0, 0, 0);" preserveAspectRatio="xMidYMid"><defs><filter id="editing-metal-beveled"><feGaussianBlur stdDeviation="4" in="SourceAlpha" result="blur"></feGaussianBlur><feSpecularLighting surfaceScale="5" specularConstant="0.8" specularExponent="7.5" lighting-color="#fff" in="blur" result="specular"><fePointLight x="-250" y="-50" z="300"></fePointLight></feSpecularLighting><feComposite operator="in" in="specular" in2="SourceAlpha" result="comp"></feComposite><feComposite in="SourceGraphic" in2="comp" operator="arithmetic" k1="0" k2="1" k3="1" k4="0"></feComposite></filter></defs><g filter="url(#editing-metal-beveled)"><g transform="translate(153.45837712287903, 123.03000259399414)"><path d="M36.10-9.66L36.10-9.66L36.10-9.66Q38.78-12.35 43.20-17.41L43.20-17.41L43.20-17.41Q43.39-17.60 43.52-17.60L43.52-17.60L43.52-17.60Q43.65-17.60 43.65-17.34L43.65-17.34L43.65-17.34Q43.65-16.13 42.69-14.98L42.69-14.98L42.69-14.98Q37.95-9.73 34.30-6.21L34.30-6.21L34.30-6.21Q26.75 0.83 24.38 0.83L24.38 0.83L24.38 0.83Q23.36 0.83 23.36-0.38L23.36-0.38L23.36-0.38Q23.36-1.60 24.67-4.42L24.67-4.42L24.67-4.42Q25.98-7.23 27.30-9.54L27.30-9.54L27.30-9.54Q28.61-11.84 30.62-15.17L30.62-15.17L30.62-15.17Q32.64-18.50 32.77-18.75L32.77-18.75L32.77-18.75Q33.92-20.61 33.92-21.12L33.92-21.12L33.92-21.12Q33.92-21.44 33.60-21.44L33.60-21.44L32.70-21.12L32.70-21.12Q29.76-19.01 25.66-14.56L25.66-14.56L25.66-14.56Q21.57-10.11 18.94-6.78L18.94-6.78L16.32-3.39L16.32-3.39Q13.38 0.83 10.56 0.83L10.56 0.83L10.56 0.83Q9.73 0.83 9.73 0.32L9.73 0.32L9.73 0.32Q9.73-0.26 10.94-2.72L10.94-2.72L10.94-2.72Q12.16-5.18 13.38-7.36L13.38-7.36L14.59-9.54L14.59-9.54Q15.04-10.43 16.80-13.41L16.80-13.41L16.80-13.41Q18.56-16.38 19.74-18.53L19.74-18.53L19.74-18.53Q20.93-20.67 20.93-21.18L20.93-21.18L20.93-21.18Q20.93-21.50 20.67-21.50L20.67-21.50L19.78-21.12L19.78-21.12Q16.77-19.01 12.67-14.56L12.67-14.56L12.67-14.56Q8.58-10.11 6.02-6.78L6.02-6.78L3.39-3.39L3.39-3.39Q0.38 0.77-2.37 0.77L-2.37 0.77L-2.37 0.77Q-3.20 0.77-3.20 0.32L-3.20 0.32L-3.20 0.32Q-3.20-0.26-1.98-2.72L-1.98-2.72L-1.98-2.72Q-0.77-5.18 0.45-7.36L0.45-7.36L1.66-9.54L7.87-20.54L7.87-20.54Q9.41-23.42 11.58-25.70L11.58-25.70L11.58-25.70Q13.76-27.97 16.13-27.97L16.13-27.97L16.13-27.97Q16.64-27.97 16.64-27.52L16.64-27.52L16.64-27.52Q16.64-27.14 15.90-25.89L15.90-25.89L15.90-25.89Q15.17-24.64 13.79-22.43L13.79-22.43L13.79-22.43Q12.42-20.22 11.46-18.37L11.46-18.37L11.46-18.37Q10.88-17.28 10.08-15.90L10.08-15.90L10.08-15.90Q9.28-14.53 8.77-13.60L8.77-13.60L8.77-13.60Q8.26-12.67 8.06-12.29L8.06-12.29L8.06-12.29Q7.87-11.90 7.87-11.71L7.87-11.71L7.87-11.71Q7.87-11.58 8-11.58L8-11.58L8-11.58Q8.19-11.58 8.64-12.03L8.64-12.03L8.64-12.03Q9.86-13.44 11.81-15.55L11.81-15.55L11.81-15.55Q13.76-17.66 18.43-21.92L18.43-21.92L18.43-21.92Q23.10-26.18 26.11-27.65L26.11-27.65L26.11-27.65Q26.75-27.97 27.39-27.97L27.39-27.97L27.39-27.97Q28.29-27.97 28.29-27.07L28.29-27.07L28.29-27.07Q28.29-25.41 24.51-18.43L24.51-18.43L24.51-18.43Q24.19-17.86 23.20-16.19L23.20-16.19L23.20-16.19Q22.21-14.53 21.54-13.31L21.54-13.31L21.54-13.31Q20.86-12.10 20.86-11.78L20.86-11.78L20.86-11.78Q20.86-11.58 20.99-11.58L20.99-11.58L20.99-11.58Q21.18-11.58 21.63-12.03L21.63-12.03L21.63-12.03Q22.85-13.44 24.80-15.55L24.80-15.55L24.80-15.55Q26.75-17.66 31.39-21.92L31.39-21.92L31.39-21.92Q36.03-26.18 39.04-27.65L39.04-27.65L39.04-27.65Q39.81-27.97 40.38-27.97L40.38-27.97L40.38-27.97Q41.34-27.97 41.34-27.07L41.34-27.07L41.34-27.07Q41.34-26.82 41.09-25.95L41.09-25.95L41.09-25.95Q40.83-25.09 39.62-22.43L39.62-22.43L39.62-22.43Q38.40-19.78 36.42-16.58L36.42-16.58L36.42-16.58Q31.55-9.09 31.55-7.17L31.55-7.17L31.55-7.17Q31.55-6.59 31.94-6.59L31.94-6.59L31.94-6.59Q33.02-6.59 36.10-9.66ZM50.88-9.09L50.88-9.09L53.57-14.34L53.57-14.34Q53.57-14.53 53.44-14.53L53.44-14.53L53.44-14.53Q53.31-14.53 53.12-14.34L53.12-14.34L53.12-14.34Q50.75-11.58 48.13-8.93L48.13-8.93L48.13-8.93Q45.50-6.27 44.10-4.99L44.10-4.99L42.69-3.71L42.69-3.71Q37.89 0.83 35.90 0.83L35.90 0.83L35.90 0.83Q35.01 0.83 35.01-0.32L35.01-0.32L35.01-0.32Q35.01-1.60 36.03-4.19L36.03-4.19L36.03-4.19Q37.06-6.78 38.08-8.70L38.08-8.70L39.10-10.69L39.10-10.69Q44.48-20.74 47.04-24.13L47.04-24.13L47.04-24.13Q48.32-25.79 50.18-26.91L50.18-26.91L50.18-26.91Q52.03-28.03 53.06-28.03L53.06-28.03L53.06-28.03Q53.70-28.03 53.70-27.58L53.70-27.58L53.70-27.58Q53.70-27.33 53.44-26.88L53.44-26.88L53.44-26.88Q53.31-26.62 50.82-22.62L50.82-22.62L50.82-22.62Q48.32-18.62 46.78-15.74L46.78-15.74L46.78-15.74Q42.56-8 42.56-6.85L42.56-6.85L42.56-6.85Q42.56-6.40 42.94-6.40L42.94-6.40L42.94-6.40Q43.52-6.40 44.93-7.55L44.93-7.55L44.93-7.55Q49.09-11.14 54.08-17.22L54.08-17.22L54.08-17.22Q56.83-20.16 59.84-24.90L59.84-24.90L59.84-24.90Q60.67-26.18 62.30-27.10L62.30-27.10L62.30-27.10Q63.94-28.03 65.28-28.03L65.28-28.03L65.28-28.03Q65.86-28.03 65.86-27.52L65.86-27.52L65.34-26.30L65.34-26.30Q64.45-24.70 61.34-19.30L61.34-19.30L61.34-19.30Q58.24-13.89 57.86-13.18L57.86-13.18L57.86-13.18Q57.34-12.22 55.52-9.06L55.52-9.06L55.52-9.06Q53.70-5.89 52.93-4.54L52.93-4.54L52.93-4.54Q56.96-7.81 59.58-10.18L59.58-10.18L59.58-10.18Q62.40-13.12 66.18-17.41L66.18-17.41L66.18-17.41Q66.37-17.60 66.50-17.60L66.50-17.60L66.50-17.60Q66.62-17.60 66.62-17.34L66.62-17.34L66.62-17.34Q66.62-16.13 65.66-14.98L65.66-14.98L65.66-14.98Q62.85-11.90 60.80-9.73L60.80-9.73L60.80-9.73Q58.11-6.91 51.20-1.54L51.20-1.54L49.54 1.54L49.54 1.54Q37.18 24.26 32.51 31.10L32.51 31.10L32.51 31.10Q32.06 31.81 31.36 32.80L31.36 32.80L31.36 32.80Q30.66 33.79 29.06 35.49L29.06 35.49L29.06 35.49Q27.46 37.18 26.50 37.18L26.50 37.18L26.50 37.18Q24.96 37.18 24.96 32.77L24.96 32.77L24.96 32.77Q24.96 26.24 29.63 18.56L29.63 18.56L29.63 18.56Q34.69 10.30 45.25 1.60L45.25 1.60L45.25 1.60Q47.36-2.24 50.88-9.09ZM31.23 18.43L31.23 18.43L31.23 18.43Q30.72 19.20 30.02 20.45L30.02 20.45L30.02 20.45Q29.31 21.70 28.10 24.74L28.10 24.74L28.10 24.74Q26.88 27.78 26.88 29.82L26.88 29.82L26.88 29.82Q26.88 30.91 27.26 30.91L27.26 30.91L27.26 30.91Q27.58 30.91 28.22 30.30L28.22 30.30L28.22 30.30Q28.86 29.70 29.31 29.06L29.31 29.06L29.76 28.42L29.76 28.42Q36.10 18.50 43.52 4.74L43.52 4.74L43.52 4.74Q35.20 12.03 31.23 18.43ZM82.37-25.86L80.83-26.24L80.83-26.24Q80.45-26.43 80.45-26.69L80.45-26.69L80.45-26.69Q80.45-27.07 81.15-27.07L81.15-27.07L83.07-27.07L83.07-27.07Q89.73-37.82 93.95-42.82L93.95-42.82L93.95-42.82Q98.37-47.94 102.72-50.46L102.72-50.46L102.72-50.46Q107.07-52.99 109.44-52.99L109.44-52.99L109.44-52.99Q110.98-52.99 110.98-51.65L110.98-51.65L110.98-51.65Q110.98-48.70 107.94-45.66L107.94-45.66L107.94-45.66Q104.90-42.62 102.78-41.73L102.78-41.73L102.78-41.73Q102.40-41.60 102.27-41.60L102.27-41.60L102.27-41.60Q102.02-41.60 102.02-41.92L102.02-41.92L102.02-41.92Q102.02-42.11 102.21-42.43L102.21-42.43L102.21-42.43Q105.92-47.87 105.92-49.66L105.92-49.66L105.92-49.66Q105.92-50.11 105.54-50.11L105.54-50.11L105.54-50.11Q104.77-50.11 102.98-48.70L102.98-48.70L102.98-48.70Q98.62-45.44 87.74-27.07L87.74-27.07L92.67-27.07L92.67-27.07Q93.57-27.07 93.57-26.82L93.57-26.82L93.57-26.82Q93.57-26.50 93.09-26.11L93.09-26.11L93.09-26.11Q92.61-25.73 92.35-25.73L92.35-25.73L87.81-25.73L87.81-25.73Q86.91-25.73 86.91-25.28L86.91-25.28L86.91-25.28Q86.91-25.09 87.01-24.19L87.01-24.19L87.01-24.19Q87.10-23.30 87.10-22.78L87.10-22.78L87.10-22.78Q87.10-16.83 83.49-8.48L83.49-8.48L83.49-8.48Q79.87-0.13 74.11 7.55L74.11 7.55L74.11 7.55Q70.78 11.97 67.97 14.85L67.97 14.85L67.97 14.85Q65.15 17.73 63.71 18.66L63.71 18.66L63.71 18.66Q62.27 19.58 61.57 19.58L61.57 19.58L61.57 19.58Q60.67 19.58 60.67 18.37L60.67 18.37L60.67 18.37Q60.67 12.48 72.90-9.09L72.90-9.09L72.90-9.09Q72.90-9.15 74.11-11.39L74.11-11.39L74.11-11.39Q75.33-13.63 77.66-17.82L77.66-17.82L77.66-17.82Q80-22.02 82.37-25.86L82.37-25.86ZM85.38-20.99L85.38-20.99L85.38-20.99Q85.38-21.89 85.18-22.66L85.18-22.66L85.18-22.66Q75.07-5.25 71.10 3.14L71.10 3.14L71.10 3.14Q67.46 10.69 67.46 11.97L67.46 11.97L67.46 11.97Q67.46 12.22 67.65 12.22L67.65 12.22L67.65 12.22Q68.54 12.22 72.06 8.06L72.06 8.06L72.06 8.06Q75.78 3.71 80.58-5.70L80.58-5.70L80.58-5.70Q85.38-15.10 85.38-20.99ZM104-4.03L104-4.03L104-4.03Q98.69 0.83 96.70 0.83L96.70 0.83L96.70 0.83Q95.81 0.83 95.81-0.19L95.81-0.19L95.81-0.19Q95.81-1.47 96.93-4.10L96.93-4.10L96.93-4.10Q98.05-6.72 99.20-8.70L99.20-8.70L100.35-10.69L100.35-10.69Q100.61-11.14 100.61-11.26L100.61-11.26L100.61-11.26Q100.61-11.39 100.48-11.39L100.48-11.39L100.48-11.39Q100.22-11.39 99.52-10.69L99.52-10.69L99.52-10.69Q97.60-8.58 95.14-6.18L95.14-6.18L95.14-6.18Q92.67-3.78 91.14-2.43L91.14-2.43L89.66-1.15L89.66-1.15Q87.17 0.77 85.82 0.77L85.82 0.77L85.82 0.77Q84.42 0.77 84.42-1.41L84.42-1.41L84.42-1.41Q84.42-2.50 85.02-4.74L85.02-4.74L85.02-4.74Q85.63-6.98 85.95-7.74L85.95-7.74L85.95-7.74Q87.42-11.33 89.63-14.72L89.63-14.72L89.63-14.72Q91.84-18.11 94.85-21.22L94.85-21.22L94.85-21.22Q97.86-24.32 101.86-26.24L101.86-26.24L101.86-26.24Q105.86-28.16 110.14-28.16L110.14-28.16L110.14-28.16Q113.73-28.16 113.73-27.07L113.73-27.07L113.73-27.07Q113.73-26.43 112.13-26.43L112.13-26.43L112.13-26.43Q106.24-26.43 101.09-21.41L101.09-21.41L101.09-21.41Q95.94-16.38 92.74-9.86L92.74-9.86L92.74-9.86Q91.84-8.06 91.84-6.85L91.84-6.85L91.84-6.85Q91.84-6.14 92.29-6.14L92.29-6.14L92.29-6.14Q93.06-6.14 94.27-7.23L94.27-7.23L94.27-7.23Q95.04-7.94 96.35-9.09L96.35-9.09L96.35-9.09Q97.66-10.24 100.61-13.50L100.61-13.50L100.61-13.50Q103.55-16.77 105.28-19.58L105.28-19.58L105.28-19.58Q105.54-20.10 106.08-20.80L106.08-20.80L106.08-20.80Q106.62-21.50 108.16-22.69L108.16-22.69L108.16-22.69Q109.70-23.87 111.23-23.87L111.23-23.87L111.23-23.87Q112.06-23.87 112.06-23.42L112.06-23.42L112.06-23.42Q112.06-23.30 111.87-22.98L111.87-22.98L111.87-22.98Q111.62-22.46 110.43-20.42L110.43-20.42L110.43-20.42Q109.25-18.37 108.22-16.54L108.22-16.54L108.22-16.54Q107.20-14.72 106.05-12.58L106.05-12.58L106.05-12.58Q104.90-10.43 104.22-8.90L104.22-8.90L104.22-8.90Q103.55-7.36 103.55-6.85L103.55-6.85L103.55-6.85Q103.55-6.46 103.87-6.46L103.87-6.46L103.87-6.46Q104.83-6.46 108.54-10.18L108.54-10.18L108.54-10.18Q111.36-13.12 115.14-17.41L115.14-17.41L115.14-17.41Q115.33-17.60 115.46-17.60L115.46-17.60L115.46-17.60Q115.58-17.60 115.58-17.34L115.58-17.34L115.58-17.34Q115.58-16.13 114.62-14.98L114.62-14.98L114.62-14.98Q108.35-8 104-4.03ZM145.15-9.66L145.15-9.66L145.15-9.66Q147.84-12.35 152.26-17.41L152.26-17.41L152.26-17.41Q152.45-17.60 152.58-17.60L152.58-17.60L152.58-17.60Q152.70-17.60 152.70-17.34L152.70-17.34L152.70-17.34Q152.70-16.13 151.74-14.98L151.74-14.98L151.74-14.98Q147.01-9.73 143.36-6.21L143.36-6.21L143.36-6.21Q135.81 0.83 133.44 0.83L133.44 0.83L133.44 0.83Q132.42 0.83 132.42-0.38L132.42-0.38L132.42-0.38Q132.42-1.60 133.73-4.42L133.73-4.42L133.73-4.42Q135.04-7.23 136.35-9.54L136.35-9.54L136.35-9.54Q137.66-11.84 139.68-15.17L139.68-15.17L139.68-15.17Q141.70-18.50 141.82-18.75L141.82-18.75L141.82-18.75Q142.98-20.61 142.98-21.12L142.98-21.12L142.98-21.12Q142.98-21.44 142.66-21.44L142.66-21.44L141.76-21.12L141.76-21.12Q138.82-19.01 134.72-14.56L134.72-14.56L134.72-14.56Q130.62-10.11 128-6.78L128-6.78L125.38-3.39L125.38-3.39Q122.43 0.83 119.62 0.83L119.62 0.83L119.62 0.83Q118.78 0.83 118.78 0.32L118.78 0.32L118.78 0.32Q118.78-0.26 120.00-2.72L120.00-2.72L120.00-2.72Q121.22-5.18 122.43-7.36L122.43-7.36L123.65-9.54L123.65-9.54Q124.10-10.43 125.86-13.41L125.86-13.41L125.86-13.41Q127.62-16.38 128.80-18.53L128.80-18.53L128.80-18.53Q129.98-20.67 129.98-21.18L129.98-21.18L129.98-21.18Q129.98-21.50 129.73-21.50L129.73-21.50L128.83-21.12L128.83-21.12Q125.82-19.01 121.73-14.56L121.73-14.56L121.73-14.56Q117.63-10.11 115.07-6.78L115.07-6.78L112.45-3.39L112.45-3.39Q109.44 0.77 106.69 0.77L106.69 0.77L106.69 0.77Q105.86 0.77 105.86 0.32L105.86 0.32L105.86 0.32Q105.86-0.26 107.07-2.72L107.07-2.72L107.07-2.72Q108.29-5.18 109.50-7.36L109.50-7.36L110.72-9.54L116.93-20.54L116.93-20.54Q118.46-23.42 120.64-25.70L120.64-25.70L120.64-25.70Q122.82-27.97 125.18-27.97L125.18-27.97L125.18-27.97Q125.70-27.97 125.70-27.52L125.70-27.52L125.70-27.52Q125.70-27.14 124.96-25.89L124.96-25.89L124.96-25.89Q124.22-24.64 122.85-22.43L122.85-22.43L122.85-22.43Q121.47-20.22 120.51-18.37L120.51-18.37L120.51-18.37Q119.94-17.28 119.14-15.90L119.14-15.90L119.14-15.90Q118.34-14.53 117.82-13.60L117.82-13.60L117.82-13.60Q117.31-12.67 117.12-12.29L117.12-12.29L117.12-12.29Q116.93-11.90 116.93-11.71L116.93-11.71L116.93-11.71Q116.93-11.58 117.06-11.58L117.06-11.58L117.06-11.58Q117.25-11.58 117.70-12.03L117.70-12.03L117.70-12.03Q118.91-13.44 120.86-15.55L120.86-15.55L120.86-15.55Q122.82-17.66 127.49-21.92L127.49-21.92L127.49-21.92Q132.16-26.18 135.17-27.65L135.17-27.65L135.17-27.65Q135.81-27.97 136.45-27.97L136.45-27.97L136.45-27.97Q137.34-27.97 137.34-27.07L137.34-27.07L137.34-27.07Q137.34-25.41 133.57-18.43L133.57-18.43L133.57-18.43Q133.25-17.86 132.26-16.19L132.26-16.19L132.26-16.19Q131.26-14.53 130.59-13.31L130.59-13.31L130.59-13.31Q129.92-12.10 129.92-11.78L129.92-11.78L129.92-11.78Q129.92-11.58 130.05-11.58L130.05-11.58L130.05-11.58Q130.24-11.58 130.69-12.03L130.69-12.03L130.69-12.03Q131.90-13.44 133.86-15.55L133.86-15.55L133.86-15.55Q135.81-17.66 140.45-21.92L140.45-21.92L140.45-21.92Q145.09-26.18 148.10-27.65L148.10-27.65L148.10-27.65Q148.86-27.97 149.44-27.97L149.44-27.97L149.44-27.97Q150.40-27.97 150.40-27.07L150.40-27.07L150.40-27.07Q150.40-26.82 150.14-25.95L150.14-25.95L150.14-25.95Q149.89-25.09 148.67-22.43L148.67-22.43L148.67-22.43Q147.46-19.78 145.47-16.58L145.47-16.58L145.47-16.58Q140.61-9.09 140.61-7.17L140.61-7.17L140.61-7.17Q140.61-6.59 140.99-6.59L140.99-6.59L140.99-6.59Q142.08-6.59 145.15-9.66ZM155.01-6.21L155.01-6.21L155.01-6.21Q147.52 0.83 145.41 0.83L145.41 0.83L145.41 0.83Q144.32 0.83 144.32-0.64L144.32-0.64L144.32-0.64Q144.32-2.11 145.47-4.93L145.47-4.93L145.47-4.93Q146.62-7.74 147.78-9.86L147.78-9.86L148.93-11.90L148.93-11.90Q153.79-20.42 156.29-24.13L156.29-24.13L156.29-24.13Q157.38-25.73 159.07-26.85L159.07-26.85L159.07-26.85Q160.77-27.97 162.24-27.97L162.24-27.97L162.24-27.97Q162.75-27.97 162.75-27.52L162.75-27.52L162.75-27.52Q162.75-27.20 162.30-26.30L162.30-26.30L162.30-26.30Q161.54-24.90 158.53-19.58L158.53-19.58L158.53-19.58Q155.52-14.27 154.94-13.18L154.94-13.18L154.94-13.18Q152.32-8.58 152.32-7.04L152.32-7.04L152.32-7.04Q152.32-6.46 152.70-6.46L152.70-6.46L152.70-6.46Q153.34-6.46 156.80-9.66L156.80-9.66L156.80-9.66Q159.49-12.35 163.90-17.41L163.90-17.41L163.90-17.41Q164.10-17.60 164.22-17.60L164.22-17.60L164.22-17.60Q164.35-17.60 164.35-17.34L164.35-17.34L164.35-17.34Q164.35-16.13 163.39-14.98L163.39-14.98L163.39-14.98Q158.66-9.73 155.01-6.21ZM163.52-31.62L163.52-31.62L163.52-31.62Q161.92-31.62 161.92-33.54L161.92-33.54L161.92-33.54Q161.92-35.33 163.26-37.15L163.26-37.15L163.26-37.15Q164.61-38.98 166.21-38.98L166.21-38.98L166.21-38.98Q168.13-38.98 168.13-36.80L168.13-36.80L168.13-36.80Q168.13-35.01 166.66-33.31L166.66-33.31L166.66-33.31Q165.18-31.62 163.52-31.62ZM176.45-31.17L176.45-31.17L176.45-31.17Q180.99-34.37 184.61-38.43L184.61-38.43L184.61-38.43Q188.22-42.50 190.11-45.92L190.11-45.92L190.11-45.92Q192-49.34 192.96-51.84L192.96-51.84L192.96-51.84Q193.92-54.34 193.92-55.42L193.92-55.42L193.92-55.42Q193.92-56.06 193.47-56.06L193.47-56.06L193.47-56.06Q192.58-56.06 191.30-54.78L191.30-54.78L191.30-54.78Q188.86-52.35 185.79-47.74L185.79-47.74L185.79-47.74Q182.72-43.14 180.83-39.84L180.83-39.84L180.83-39.84Q178.94-36.54 175.94-31.04L175.94-31.04L175.94-31.04Q176.19-31.04 176.45-31.17ZM169.60-9.66L169.60-9.66L169.60-9.66Q172.29-12.35 176.70-17.41L176.70-17.41L176.70-17.41Q176.90-17.60 177.02-17.60L177.02-17.60L177.02-17.60Q177.15-17.60 177.15-17.34L177.15-17.34L177.15-17.34Q177.15-16.13 176.19-14.98L176.19-14.98L176.19-14.98Q171.46-9.73 167.81-6.21L167.81-6.21L167.81-6.21Q159.81 1.34 157.63 1.34L157.63 1.34L157.63 1.34Q156.67 1.34 156.67 0L156.67 0L156.67 0Q156.67-0.70 156.83-1.54L156.83-1.54L156.83-1.54Q156.99-2.37 157.38-3.36L157.38-3.36L157.38-3.36Q157.76-4.35 158.05-5.02L158.05-5.02L158.05-5.02Q158.34-5.70 158.88-6.94L158.88-6.94L158.88-6.94Q159.42-8.19 159.62-8.64L159.62-8.64L159.62-8.64Q161.41-12.67 170.62-29.89L170.62-29.89L170.62-29.89Q183.23-52.86 193.79-58.11L193.79-58.11L193.79-58.11Q195.33-58.88 196.86-58.88L196.86-58.88L196.86-58.88Q198.66-58.88 198.66-57.22L198.66-57.22L198.66-57.22Q198.66-53.38 196.03-48.80L196.03-48.80L196.03-48.80Q193.41-44.22 189.63-40.38L189.63-40.38L189.63-40.38Q185.86-36.54 182.24-33.66L182.24-33.66L182.24-33.66Q178.62-30.78 176-29.31L176-29.31L176-29.31Q175.62-29.18 175.30-28.74L175.30-28.74L175.30-28.74Q172.48-24.19 169.79-18.98L169.79-18.98L169.79-18.98Q167.10-13.76 165.76-10.75L165.76-10.75L164.48-7.81L164.48-7.81Q164.16-6.85 164.16-6.53L164.16-6.53L164.16-6.53Q164.16-5.95 164.61-5.95L164.61-5.95L164.61-5.95Q165.89-5.95 169.60-9.66ZM184.38-9.09L184.38-9.09L187.07-14.34L187.07-14.34Q187.07-14.53 186.94-14.53L186.94-14.53L186.94-14.53Q186.82-14.53 186.62-14.34L186.62-14.34L186.62-14.34Q184.26-11.58 181.63-8.93L181.63-8.93L181.63-8.93Q179.01-6.27 177.60-4.99L177.60-4.99L176.19-3.71L176.19-3.71Q171.39 0.83 169.41 0.83L169.41 0.83L169.41 0.83Q168.51 0.83 168.51-0.32L168.51-0.32L168.51-0.32Q168.51-1.60 169.54-4.19L169.54-4.19L169.54-4.19Q170.56-6.78 171.58-8.70L171.58-8.70L172.61-10.69L172.61-10.69Q177.98-20.74 180.54-24.13L180.54-24.13L180.54-24.13Q181.82-25.79 183.68-26.91L183.68-26.91L183.68-26.91Q185.54-28.03 186.56-28.03L186.56-28.03L186.56-28.03Q187.20-28.03 187.20-27.58L187.20-27.58L187.20-27.58Q187.20-27.33 186.94-26.88L186.94-26.88L186.94-26.88Q186.82-26.62 184.32-22.62L184.32-22.62L184.32-22.62Q181.82-18.62 180.29-15.74L180.29-15.74L180.29-15.74Q176.06-8 176.06-6.85L176.06-6.85L176.06-6.85Q176.06-6.40 176.45-6.40L176.45-6.40L176.45-6.40Q177.02-6.40 178.43-7.55L178.43-7.55L178.43-7.55Q182.59-11.14 187.58-17.22L187.58-17.22L187.58-17.22Q190.34-20.16 193.34-24.90L193.34-24.90L193.34-24.90Q194.18-26.18 195.81-27.10L195.81-27.10L195.81-27.10Q197.44-28.03 198.78-28.03L198.78-28.03L198.78-28.03Q199.36-28.03 199.36-27.52L199.36-27.52L198.85-26.30L198.85-26.30Q197.95-24.70 194.85-19.30L194.85-19.30L194.85-19.30Q191.74-13.89 191.36-13.18L191.36-13.18L191.36-13.18Q190.85-12.22 189.02-9.06L189.02-9.06L189.02-9.06Q187.20-5.89 186.43-4.54L186.43-4.54L186.43-4.54Q190.46-7.81 193.09-10.18L193.09-10.18L193.09-10.18Q195.90-13.12 199.68-17.41L199.68-17.41L199.68-17.41Q199.87-17.60 200.00-17.60L200.00-17.60L200.00-17.60Q200.13-17.60 200.13-17.34L200.13-17.34L200.13-17.34Q200.13-16.13 199.17-14.98L199.17-14.98L199.17-14.98Q196.35-11.90 194.30-9.73L194.30-9.73L194.30-9.73Q191.62-6.91 184.70-1.54L184.70-1.54L183.04 1.54L183.04 1.54Q170.69 24.26 166.02 31.10L166.02 31.10L166.02 31.10Q165.57 31.81 164.86 32.80L164.86 32.80L164.86 32.80Q164.16 33.79 162.56 35.49L162.56 35.49L162.56 35.49Q160.96 37.18 160.00 37.18L160.00 37.18L160.00 37.18Q158.46 37.18 158.46 32.77L158.46 32.77L158.46 32.77Q158.46 26.24 163.14 18.56L163.14 18.56L163.14 18.56Q168.19 10.30 178.75 1.60L178.75 1.60L178.75 1.60Q180.86-2.24 184.38-9.09ZM164.74 18.43L164.74 18.43L164.74 18.43Q164.22 19.20 163.52 20.45L163.52 20.45L163.52 20.45Q162.82 21.70 161.60 24.74L161.60 24.74L161.60 24.74Q160.38 27.78 160.38 29.82L160.38 29.82L160.38 29.82Q160.38 30.91 160.77 30.91L160.77 30.91L160.77 30.91Q161.09 30.91 161.73 30.30L161.73 30.30L161.73 30.30Q162.37 29.70 162.82 29.06L162.82 29.06L163.26 28.42L163.26 28.42Q169.60 18.50 177.02 4.74L177.02 4.74L177.02 4.74Q168.70 12.03 164.74 18.43Z" fill="#444"></path></g></g><style>text {
  font-size: 64px;
  font-family: Arial Black;
  dominant-baseline: central;
  text-anchor: middle;
}</style></svg>