<svg width="303.48114013671875px" height="155.36000366210936px" xmlns="http://www.w3.org/2000/svg" viewBox="98.25942993164062 -2.680001831054682 303.48114013671875 155.36000366210936" style="background: rgba(0, 0, 0, 0);" preserveAspectRatio="xMidYMid"><defs><filter id="editing-metal-beveled"><feGaussianBlur stdDeviation="4" in="SourceAlpha" result="blur"></feGaussianBlur><feSpecularLighting surfaceScale="5" specularConstant="0.8" specularExponent="7.5" lighting-color="#fff" in="blur" result="specular"><fePointLight x="-250" y="-50" z="300"></fePointLight></feSpecularLighting><feComposite operator="in" in="specular" in2="SourceAlpha" result="comp"></feComposite><feComposite in="SourceGraphic" in2="comp" operator="arithmetic" k1="0" k2="1" k3="1" k4="0"></feComposite></filter></defs><g filter="url(#editing-metal-beveled)"><g transform="translate(150.53453373908997, 123.31999969482422)"><path d="M36.10-9.66L36.10-9.66L36.10-9.66Q38.78-12.35 43.20-17.41L43.20-17.41L43.20-17.41Q43.39-17.60 43.52-17.60L43.52-17.60L43.52-17.60Q43.65-17.60 43.65-17.34L43.65-17.34L43.65-17.34Q43.65-16.13 42.69-14.98L42.69-14.98L42.69-14.98Q37.95-9.73 34.30-6.21L34.30-6.21L34.30-6.21Q26.75 0.83 24.38 0.83L24.38 0.83L24.38 0.83Q23.36 0.83 23.36-0.38L23.36-0.38L23.36-0.38Q23.36-1.60 24.67-4.42L24.67-4.42L24.67-4.42Q25.98-7.23 27.30-9.54L27.30-9.54L27.30-9.54Q28.61-11.84 30.62-15.17L30.62-15.17L30.62-15.17Q32.64-18.50 32.77-18.75L32.77-18.75L32.77-18.75Q33.92-20.61 33.92-21.12L33.92-21.12L33.92-21.12Q33.92-21.44 33.60-21.44L33.60-21.44L32.70-21.12L32.70-21.12Q29.76-19.01 25.66-14.56L25.66-14.56L25.66-14.56Q21.57-10.11 18.94-6.78L18.94-6.78L16.32-3.39L16.32-3.39Q13.38 0.83 10.56 0.83L10.56 0.83L10.56 0.83Q9.73 0.83 9.73 0.32L9.73 0.32L9.73 0.32Q9.73-0.26 10.94-2.72L10.94-2.72L10.94-2.72Q12.16-5.18 13.38-7.36L13.38-7.36L14.59-9.54L14.59-9.54Q15.04-10.43 16.80-13.41L16.80-13.41L16.80-13.41Q18.56-16.38 19.74-18.53L19.74-18.53L19.74-18.53Q20.93-20.67 20.93-21.18L20.93-21.18L20.93-21.18Q20.93-21.50 20.67-21.50L20.67-21.50L19.78-21.12L19.78-21.12Q16.77-19.01 12.67-14.56L12.67-14.56L12.67-14.56Q8.58-10.11 6.02-6.78L6.02-6.78L3.39-3.39L3.39-3.39Q0.38 0.77-2.37 0.77L-2.37 0.77L-2.37 0.77Q-3.20 0.77-3.20 0.32L-3.20 0.32L-3.20 0.32Q-3.20-0.26-1.98-2.72L-1.98-2.72L-1.98-2.72Q-0.77-5.18 0.45-7.36L0.45-7.36L1.66-9.54L7.87-20.54L7.87-20.54Q9.41-23.42 11.58-25.70L11.58-25.70L11.58-25.70Q13.76-27.97 16.13-27.97L16.13-27.97L16.13-27.97Q16.64-27.97 16.64-27.52L16.64-27.52L16.64-27.52Q16.64-27.14 15.90-25.89L15.90-25.89L15.90-25.89Q15.17-24.64 13.79-22.43L13.79-22.43L13.79-22.43Q12.42-20.22 11.46-18.37L11.46-18.37L11.46-18.37Q10.88-17.28 10.08-15.90L10.08-15.90L10.08-15.90Q9.28-14.53 8.77-13.60L8.77-13.60L8.77-13.60Q8.26-12.67 8.06-12.29L8.06-12.29L8.06-12.29Q7.87-11.90 7.87-11.71L7.87-11.71L7.87-11.71Q7.87-11.58 8-11.58L8-11.58L8-11.58Q8.19-11.58 8.64-12.03L8.64-12.03L8.64-12.03Q9.86-13.44 11.81-15.55L11.81-15.55L11.81-15.55Q13.76-17.66 18.43-21.92L18.43-21.92L18.43-21.92Q23.10-26.18 26.11-27.65L26.11-27.65L26.11-27.65Q26.75-27.97 27.39-27.97L27.39-27.97L27.39-27.97Q28.29-27.97 28.29-27.07L28.29-27.07L28.29-27.07Q28.29-25.41 24.51-18.43L24.51-18.43L24.51-18.43Q24.19-17.86 23.20-16.19L23.20-16.19L23.20-16.19Q22.21-14.53 21.54-13.31L21.54-13.31L21.54-13.31Q20.86-12.10 20.86-11.78L20.86-11.78L20.86-11.78Q20.86-11.58 20.99-11.58L20.99-11.58L20.99-11.58Q21.18-11.58 21.63-12.03L21.63-12.03L21.63-12.03Q22.85-13.44 24.80-15.55L24.80-15.55L24.80-15.55Q26.75-17.66 31.39-21.92L31.39-21.92L31.39-21.92Q36.03-26.18 39.04-27.65L39.04-27.65L39.04-27.65Q39.81-27.97 40.38-27.97L40.38-27.97L40.38-27.97Q41.34-27.97 41.34-27.07L41.34-27.07L41.34-27.07Q41.34-26.82 41.09-25.95L41.09-25.95L41.09-25.95Q40.83-25.09 39.62-22.43L39.62-22.43L39.62-22.43Q38.40-19.78 36.42-16.58L36.42-16.58L36.42-16.58Q31.55-9.09 31.55-7.17L31.55-7.17L31.55-7.17Q31.55-6.59 31.94-6.59L31.94-6.59L31.94-6.59Q33.02-6.59 36.10-9.66ZM50.88-9.09L50.88-9.09L53.57-14.34L53.57-14.34Q53.57-14.53 53.44-14.53L53.44-14.53L53.44-14.53Q53.31-14.53 53.12-14.34L53.12-14.34L53.12-14.34Q50.75-11.58 48.13-8.93L48.13-8.93L48.13-8.93Q45.50-6.27 44.10-4.99L44.10-4.99L42.69-3.71L42.69-3.71Q37.89 0.83 35.90 0.83L35.90 0.83L35.90 0.83Q35.01 0.83 35.01-0.32L35.01-0.32L35.01-0.32Q35.01-1.60 36.03-4.19L36.03-4.19L36.03-4.19Q37.06-6.78 38.08-8.70L38.08-8.70L39.10-10.69L39.10-10.69Q44.48-20.74 47.04-24.13L47.04-24.13L47.04-24.13Q48.32-25.79 50.18-26.91L50.18-26.91L50.18-26.91Q52.03-28.03 53.06-28.03L53.06-28.03L53.06-28.03Q53.70-28.03 53.70-27.58L53.70-27.58L53.70-27.58Q53.70-27.33 53.44-26.88L53.44-26.88L53.44-26.88Q53.31-26.62 50.82-22.62L50.82-22.62L50.82-22.62Q48.32-18.62 46.78-15.74L46.78-15.74L46.78-15.74Q42.56-8 42.56-6.85L42.56-6.85L42.56-6.85Q42.56-6.40 42.94-6.40L42.94-6.40L42.94-6.40Q43.52-6.40 44.93-7.55L44.93-7.55L44.93-7.55Q49.09-11.14 54.08-17.22L54.08-17.22L54.08-17.22Q56.83-20.16 59.84-24.90L59.84-24.90L59.84-24.90Q60.67-26.18 62.30-27.10L62.30-27.10L62.30-27.10Q63.94-28.03 65.28-28.03L65.28-28.03L65.28-28.03Q65.86-28.03 65.86-27.52L65.86-27.52L65.34-26.30L65.34-26.30Q64.45-24.70 61.34-19.30L61.34-19.30L61.34-19.30Q58.24-13.89 57.86-13.18L57.86-13.18L57.86-13.18Q57.34-12.22 55.52-9.06L55.52-9.06L55.52-9.06Q53.70-5.89 52.93-4.54L52.93-4.54L52.93-4.54Q56.96-7.81 59.58-10.18L59.58-10.18L59.58-10.18Q62.40-13.12 66.18-17.41L66.18-17.41L66.18-17.41Q66.37-17.60 66.50-17.60L66.50-17.60L66.50-17.60Q66.62-17.60 66.62-17.34L66.62-17.34L66.62-17.34Q66.62-16.13 65.66-14.98L65.66-14.98L65.66-14.98Q62.85-11.90 60.80-9.73L60.80-9.73L60.80-9.73Q58.11-6.91 51.20-1.54L51.20-1.54L49.54 1.54L49.54 1.54Q37.18 24.26 32.51 31.10L32.51 31.10L32.51 31.10Q32.06 31.81 31.36 32.80L31.36 32.80L31.36 32.80Q30.66 33.79 29.06 35.49L29.06 35.49L29.06 35.49Q27.46 37.18 26.50 37.18L26.50 37.18L26.50 37.18Q24.96 37.18 24.96 32.77L24.96 32.77L24.96 32.77Q24.96 26.24 29.63 18.56L29.63 18.56L29.63 18.56Q34.69 10.30 45.25 1.60L45.25 1.60L45.25 1.60Q47.36-2.24 50.88-9.09ZM31.23 18.43L31.23 18.43L31.23 18.43Q30.72 19.20 30.02 20.45L30.02 20.45L30.02 20.45Q29.31 21.70 28.10 24.74L28.10 24.74L28.10 24.74Q26.88 27.78 26.88 29.82L26.88 29.82L26.88 29.82Q26.88 30.91 27.26 30.91L27.26 30.91L27.26 30.91Q27.58 30.91 28.22 30.30L28.22 30.30L28.22 30.30Q28.86 29.70 29.31 29.06L29.31 29.06L29.76 28.42L29.76 28.42Q36.10 18.50 43.52 4.74L43.52 4.74L43.52 4.74Q35.20 12.03 31.23 18.43ZM82.37-25.86L80.83-26.24L80.83-26.24Q80.45-26.43 80.45-26.69L80.45-26.69L80.45-26.69Q80.45-27.07 81.15-27.07L81.15-27.07L83.07-27.07L83.07-27.07Q89.73-37.82 93.95-42.82L93.95-42.82L93.95-42.82Q98.37-47.94 102.72-50.46L102.72-50.46L102.72-50.46Q107.07-52.99 109.44-52.99L109.44-52.99L109.44-52.99Q110.98-52.99 110.98-51.65L110.98-51.65L110.98-51.65Q110.98-48.70 107.94-45.66L107.94-45.66L107.94-45.66Q104.90-42.62 102.78-41.73L102.78-41.73L102.78-41.73Q102.40-41.60 102.27-41.60L102.27-41.60L102.27-41.60Q102.02-41.60 102.02-41.92L102.02-41.92L102.02-41.92Q102.02-42.11 102.21-42.43L102.21-42.43L102.21-42.43Q105.92-47.87 105.92-49.66L105.92-49.66L105.92-49.66Q105.92-50.11 105.54-50.11L105.54-50.11L105.54-50.11Q104.77-50.11 102.98-48.70L102.98-48.70L102.98-48.70Q98.62-45.44 87.74-27.07L87.74-27.07L92.67-27.07L92.67-27.07Q93.57-27.07 93.57-26.82L93.57-26.82L93.57-26.82Q93.57-26.50 93.09-26.11L93.09-26.11L93.09-26.11Q92.61-25.73 92.35-25.73L92.35-25.73L87.81-25.73L87.81-25.73Q86.91-25.73 86.91-25.28L86.91-25.28L86.91-25.28Q86.91-25.09 87.01-24.19L87.01-24.19L87.01-24.19Q87.10-23.30 87.10-22.78L87.10-22.78L87.10-22.78Q87.10-16.83 83.49-8.48L83.49-8.48L83.49-8.48Q79.87-0.13 74.11 7.55L74.11 7.55L74.11 7.55Q70.78 11.97 67.97 14.85L67.97 14.85L67.97 14.85Q65.15 17.73 63.71 18.66L63.71 18.66L63.71 18.66Q62.27 19.58 61.57 19.58L61.57 19.58L61.57 19.58Q60.67 19.58 60.67 18.37L60.67 18.37L60.67 18.37Q60.67 12.48 72.90-9.09L72.90-9.09L72.90-9.09Q72.90-9.15 74.11-11.39L74.11-11.39L74.11-11.39Q75.33-13.63 77.66-17.82L77.66-17.82L77.66-17.82Q80-22.02 82.37-25.86L82.37-25.86ZM85.38-20.99L85.38-20.99L85.38-20.99Q85.38-21.89 85.18-22.66L85.18-22.66L85.18-22.66Q75.07-5.25 71.10 3.14L71.10 3.14L71.10 3.14Q67.46 10.69 67.46 11.97L67.46 11.97L67.46 11.97Q67.46 12.22 67.65 12.22L67.65 12.22L67.65 12.22Q68.54 12.22 72.06 8.06L72.06 8.06L72.06 8.06Q75.78 3.71 80.58-5.70L80.58-5.70L80.58-5.70Q85.38-15.10 85.38-20.99ZM101.44-13.25L101.44-13.25L101.44-13.25Q100.93-13.25 100.93-13.63L100.93-13.63L100.93-13.63Q100.93-13.82 101.12-14.14L101.12-14.14L101.12-14.14Q104.90-20.03 104.90-22.21L104.90-22.21L104.90-22.21Q104.90-22.78 104.45-22.78L104.45-22.78L104.45-22.78Q102.53-22.78 95.42-14.08L95.42-14.08L95.42-14.08Q93.31-11.39 91.49-8.51L91.49-8.51L91.49-8.51Q89.66-5.63 88.96-4.10L88.96-4.10L88.19-2.62L88.19-2.62Q87.42-1.09 85.82 0.22L85.82 0.22L85.82 0.22Q84.22 1.54 82.50 1.54L82.50 1.54L82.50 1.54Q81.60 1.54 81.60 1.09L81.60 1.09L81.60 1.09Q81.60 0.70 82.14-0.51L82.14-0.51L82.14-0.51Q82.69-1.73 83.46-3.20L83.46-3.20L83.46-3.20Q84.22-4.67 84.99-6.08L84.99-6.08L84.99-6.08Q85.76-7.49 86.27-8.45L86.27-8.45L86.85-9.41L93.57-21.12L93.57-21.12Q97.47-28.48 101.76-28.48L101.76-28.48L101.76-28.48Q102.34-28.48 102.34-28.03L102.34-28.03L102.34-28.03Q102.34-27.46 99.55-23.26L99.55-23.26L99.55-23.26Q96.77-19.07 96.32-17.92L96.32-17.92L96.32-17.92Q96.19-17.54 96.19-17.47L96.19-17.47L96.19-17.47Q96.19-17.34 96.32-17.34L96.32-17.34L96.32-17.34Q96.45-17.34 96.77-17.66L96.77-17.66L96.77-17.66Q101.57-23.10 106.94-27.33L106.94-27.33L106.94-27.33Q107.26-27.65 108.35-28.26L108.35-28.26L108.35-28.26Q109.44-28.86 110.27-28.86L110.27-28.86L110.27-28.86Q111.49-28.86 111.49-26.75L111.49-26.75L111.49-26.75Q111.49-24.45 109.95-21.25L109.95-21.25L109.95-21.25Q108.42-18.05 105.79-15.62L105.79-15.62L105.54-15.36L105.54-15.36Q105.28-15.17 104.99-14.94L104.99-14.94L104.99-14.94Q104.70-14.72 104.26-14.40L104.26-14.40L104.26-14.40Q103.81-14.08 103.36-13.86L103.36-13.86L103.36-13.86Q102.91-13.63 102.40-13.44L102.40-13.44L102.40-13.44Q101.89-13.25 101.44-13.25ZM112.90-6.21L112.90-6.21L112.90-6.21Q105.41 0.83 103.30 0.83L103.30 0.83L103.30 0.83Q102.21 0.83 102.21-0.64L102.21-0.64L102.21-0.64Q102.21-2.11 103.36-4.93L103.36-4.93L103.36-4.93Q104.51-7.74 105.66-9.86L105.66-9.86L106.82-11.90L106.82-11.90Q111.68-20.42 114.18-24.13L114.18-24.13L114.18-24.13Q115.26-25.73 116.96-26.85L116.96-26.85L116.96-26.85Q118.66-27.97 120.13-27.97L120.13-27.97L120.13-27.97Q120.64-27.97 120.64-27.52L120.64-27.52L120.64-27.52Q120.64-27.20 120.19-26.30L120.19-26.30L120.19-26.30Q119.42-24.90 116.42-19.58L116.42-19.58L116.42-19.58Q113.41-14.27 112.83-13.18L112.83-13.18L112.83-13.18Q110.21-8.58 110.21-7.04L110.21-7.04L110.21-7.04Q110.21-6.46 110.59-6.46L110.59-6.46L110.59-6.46Q111.23-6.46 114.69-9.66L114.69-9.66L114.69-9.66Q117.38-12.35 121.79-17.41L121.79-17.41L121.79-17.41Q121.98-17.60 122.11-17.60L122.11-17.60L122.11-17.60Q122.24-17.60 122.24-17.34L122.24-17.34L122.24-17.34Q122.24-16.13 121.28-14.98L121.28-14.98L121.28-14.98Q116.54-9.73 112.90-6.21ZM121.41-31.62L121.41-31.62L121.41-31.62Q119.81-31.62 119.81-33.54L119.81-33.54L119.81-33.54Q119.81-35.33 121.15-37.15L121.15-37.15L121.15-37.15Q122.50-38.98 124.10-38.98L124.10-38.98L124.10-38.98Q126.02-38.98 126.02-36.80L126.02-36.80L126.02-36.80Q126.02-35.01 124.54-33.31L124.54-33.31L124.54-33.31Q123.07-31.62 121.41-31.62ZM133.31-21.70L133.31-21.70L133.31-21.70Q134.08-23.30 134.08-24.51L134.08-24.51L134.08-24.51Q134.08-25.54 133.44-25.54L133.44-25.54L133.44-25.54Q133.06-25.54 132.58-25.31L132.58-25.31L132.58-25.31Q132.10-25.09 131.84-24.83L131.84-24.83L131.52-24.58L131.52-24.58Q129.54-22.85 126.56-18.27L126.56-18.27L126.56-18.27Q123.58-13.70 123.58-12.42L123.58-12.42L123.58-12.42Q123.58-12.16 123.71-12.16L123.71-12.16L123.71-12.16Q124.10-12.16 125.41-12.80L125.41-12.80L125.41-12.80Q126.72-13.44 129.18-15.81L129.18-15.81L129.18-15.81Q131.65-18.18 133.31-21.70ZM130.43-7.04L130.43-7.04L130.43-7.04Q133.82-10.18 140.16-17.41L140.16-17.41L140.16-17.41Q140.35-17.60 140.48-17.60L140.48-17.60L140.48-17.60Q140.61-17.60 140.61-17.34L140.61-17.34L140.61-17.34Q140.61-16.13 139.65-14.98L139.65-14.98L139.65-14.98Q134.91-9.73 131.26-6.21L131.26-6.21L131.26-6.21Q128.58-3.52 124.86-1.06L124.86-1.06L124.86-1.06Q121.15 1.41 118.72 1.41L118.72 1.41L118.72 1.41Q115.78 1.41 115.78-2.69L115.78-2.69L115.78-2.69Q115.78-9.47 120.80-16.90L120.80-16.90L120.80-16.90Q125.82-24.32 132.42-26.94L132.42-26.94L132.42-26.94Q135.17-28.10 137.41-28.10L137.41-28.10L137.41-28.10Q139.90-28.10 139.90-26.11L139.90-26.11L139.90-26.11Q139.90-22.40 134.66-17.60L134.66-17.60L134.66-17.60Q129.41-12.80 122.88-10.30L122.88-10.30L122.88-10.30Q122.62-10.24 122.43-9.86L122.43-9.86L122.43-9.86Q121.47-7.23 121.47-5.18L121.47-5.18L121.47-5.18Q121.47-2.88 123.20-2.88L123.20-2.88L123.20-2.88Q125.95-2.88 130.43-7.04ZM155.52-6.21L155.52-6.21L155.52-6.21Q148.03 0.83 145.66 0.83L145.66 0.83L145.66 0.83Q144.58 0.83 144.58-0.32L144.58-0.32L144.58-0.32Q144.58-1.02 144.90-2.08L144.90-2.08L144.90-2.08Q145.22-3.14 145.70-4.19L145.70-4.19L145.70-4.19Q146.18-5.25 146.62-6.14L146.62-6.14L146.62-6.14Q147.07-7.04 147.52-7.81L147.52-7.81L147.52-7.81Q147.97-8.58 147.97-8.64L147.97-8.64L147.97-8.64Q148.93-10.37 150.85-13.47L150.85-13.47L150.85-13.47Q152.77-16.58 153.92-18.59L153.92-18.59L153.92-18.59Q155.07-20.61 155.07-21.06L155.07-21.06L155.07-21.06Q155.07-21.38 154.75-21.38L154.75-21.38L153.86-21.06L153.86-21.06Q150.91-18.94 146.82-14.50L146.82-14.50L146.82-14.50Q142.72-10.05 140.10-6.66L140.10-6.66L137.47-3.33L137.47-3.33Q136.64-2.11 136-1.34L136-1.34L136-1.34Q135.36-0.58 134.18 0.16L134.18 0.16L134.18 0.16Q132.99 0.90 131.78 0.90L131.78 0.90L131.78 0.90Q130.88 0.90 130.88 0.38L130.88 0.38L130.88 0.38Q130.88-0.13 132.10-2.59L132.10-2.59L132.10-2.59Q133.31-5.06 134.53-7.30L134.53-7.30L135.74-9.47L142.02-20.48L142.02-20.48Q142.98-22.08 143.58-22.94L143.58-22.94L143.58-22.94Q144.19-23.81 145.28-25.12L145.28-25.12L145.28-25.12Q146.37-26.43 147.62-27.07L147.62-27.07L147.62-27.07Q148.86-27.71 150.27-27.84L150.27-27.84L150.27-27.84Q150.78-27.84 150.78-27.39L150.78-27.39L150.78-27.39Q150.78-27.01 150.59-26.75L150.59-26.75L150.59-26.75Q149.12-24.45 146.08-19.14L146.08-19.14L146.08-19.14Q143.04-13.82 142.21-12.22L142.21-12.22L142.21-12.22Q142.02-11.84 142.02-11.65L142.02-11.65L142.02-11.65Q142.02-11.52 142.14-11.52L142.14-11.52L142.14-11.52Q142.27-11.52 142.78-11.90L142.78-11.90L142.78-11.90Q144-13.31 145.95-15.42L145.95-15.42L145.95-15.42Q147.90-17.54 152.58-21.79L152.58-21.79L152.58-21.79Q157.25-26.05 160.26-27.52L160.26-27.52L160.26-27.52Q160.96-27.84 161.60-27.84L161.60-27.84L161.60-27.84Q162.50-27.84 162.50-26.82L162.50-26.82L162.50-26.82Q161.98-23.81 157.57-16.51L157.57-16.51L157.57-16.51Q152.70-8.51 152.70-7.04L152.70-7.04L152.70-7.04Q152.70-6.53 153.15-6.53L153.15-6.53L153.15-6.53Q153.47-6.53 153.89-6.75L153.89-6.75L153.89-6.75Q154.30-6.98 154.82-7.39L154.82-7.39L154.82-7.39Q155.33-7.81 155.68-8.13L155.68-8.13L155.68-8.13Q156.03-8.45 156.61-8.99L156.61-8.99L156.61-8.99Q157.18-9.54 157.31-9.66L157.31-9.66L157.31-9.66Q160-12.35 164.42-17.41L164.42-17.41L164.42-17.41Q164.61-17.60 164.74-17.60L164.74-17.60L164.74-17.60Q164.86-17.60 164.86-17.34L164.86-17.34L164.86-17.34Q164.86-16.13 163.90-14.98L163.90-14.98L163.90-14.98Q159.17-9.73 155.52-6.21ZM166.91-6.85L166.91-6.85L166.91-6.85Q167.30-7.17 167.97-7.78L167.97-7.78L167.97-7.78Q168.64-8.38 170.56-10.34L170.56-10.34L170.56-10.34Q172.48-12.29 174.24-14.37L174.24-14.37L174.24-14.37Q176-16.45 178.14-19.52L178.14-19.52L178.14-19.52Q180.29-22.59 181.82-25.60L181.82-25.60L181.82-25.60Q181.89-25.73 181.89-25.86L181.89-25.86L181.82-26.05L181.82-26.05Q181.38-26.30 180.80-26.30L180.80-26.30L180.80-26.30Q178.05-26.30 173.98-22.21L173.98-22.21L173.98-22.21Q169.92-18.11 167.07-13.41L167.07-13.41L167.07-13.41Q164.22-8.70 164.22-6.66L164.22-6.66L164.22-6.66Q164.22-5.76 164.93-5.76L164.93-5.76L164.93-5.76Q165.70-5.76 166.91-6.85ZM181.06-9.66L181.06-9.66L181.06-9.66Q183.74-12.35 188.16-17.41L188.16-17.41L188.16-17.41Q188.35-17.60 188.48-17.60L188.48-17.60L188.48-17.60Q188.61-17.60 188.61-17.34L188.61-17.34L188.61-17.34Q188.61-16.13 187.65-14.98L187.65-14.98L187.65-14.98Q182.91-9.73 179.26-6.21L179.26-6.21L179.26-6.21Q171.71 0.83 169.34 0.83L169.34 0.83L169.34 0.83Q168.45 0.83 168.45-0.13L168.45-0.13L168.45-0.13Q168.45-1.34 169.66-3.97L169.66-3.97L169.66-3.97Q170.88-6.59 172.16-8.64L172.16-8.64L173.38-10.69L173.38-10.69Q173.63-11.01 173.63-11.26L173.63-11.26L173.63-11.26Q173.63-11.39 173.50-11.39L173.50-11.39L173.50-11.39Q173.25-11.39 172.80-10.94L172.80-10.94L172.80-10.94Q170.82-8.64 168.26-6.21L168.26-6.21L168.26-6.21Q165.70-3.78 164.10-2.43L164.10-2.43L162.56-1.15L162.56-1.15Q160 0.83 158.72 0.83L158.72 0.83L158.46 0.77L158.46 0.77Q157.38 0.70 157.38-1.15L157.38-1.15L157.38-1.15Q157.38-6.02 160.80-12.26L160.80-12.26L160.80-12.26Q164.22-18.50 169.66-23.10L169.66-23.10L169.66-23.10Q175.10-27.71 180.16-27.71L180.16-27.71L180.16-27.71Q180.67-27.71 181.12-27.62L181.12-27.62L181.12-27.62Q181.57-27.52 181.79-27.46L181.79-27.46L181.79-27.46Q182.02-27.39 182.21-27.26L182.21-27.26L182.40-27.20L182.40-27.20Q182.53-27.20 182.72-27.39L182.72-27.39L182.72-27.39Q194.56-48.77 200.90-56.90L200.90-56.90L200.90-56.90Q202.82-59.46 203.65-59.46L203.65-59.46L203.65-59.46Q203.97-59.46 203.97-58.94L203.97-58.94L203.97-58.94Q203.97-57.60 201.92-53.44L201.92-53.44L201.92-53.44Q192.06-35.39 188.10-28.42L188.10-28.42L188.10-28.42Q180.99-15.74 179.46-13.18L179.46-13.18L179.46-13.18Q176.32-7.81 176.32-6.66L176.32-6.66L176.32-6.66Q176.32-6.21 176.70-6.21L176.70-6.21L176.70-6.21Q177.02-6.21 177.44-6.43L177.44-6.43L177.44-6.43Q177.86-6.66 178.37-7.10L178.37-7.10L178.37-7.10Q178.88-7.55 179.30-7.94L179.30-7.94L179.30-7.94Q179.71-8.32 180.29-8.90L180.29-8.90L180.29-8.90Q180.86-9.47 181.06-9.66ZM197.18-7.30L197.18-7.30L197.18-7.30Q196.03-4.16 193.54-2.02L193.54-2.02L193.54-2.02Q191.04 0.13 188.90 0.90L188.90 0.90L188.90 0.90Q186.75 1.66 185.02 1.66L185.02 1.66L185.02 1.66Q180.35 1.66 180.35-1.98L180.35-1.98L180.35-1.98Q180.35-5.70 184.45-8.70L184.45-8.70L184.45-8.70Q186.37-10.11 188.61-10.56L188.61-10.56L188.61-10.56Q188.93-10.56 188.93-10.30L188.93-10.30L188.93-10.30Q188.93-10.18 188.80-10.05L188.80-10.05L188.80-10.05Q187.20-8.83 185.76-6.27L185.76-6.27L185.76-6.27Q184.32-3.71 184.32-1.79L184.32-1.79L184.32-1.79Q184.32 0.13 185.92 0.13L185.92 0.13L185.92 0.13Q187.20 0.13 188.45-0.93L188.45-0.93L188.45-0.93Q189.70-1.98 190.34-3.07L190.34-3.07L190.98-4.10L190.98-4.10Q192.26-6.14 193.12-10.62L193.12-10.62L193.12-10.62Q193.98-15.10 194.24-18.56L194.24-18.56L194.43-22.02L194.43-22.02Q194.43-22.53 194.24-22.53L194.24-22.53L193.98-22.40L187.65-14.98L187.65-14.98Q186.94-14.14 186.69-14.14L186.69-14.14L186.69-14.14Q186.37-14.14 186.37-14.59L186.37-14.59L186.37-14.59Q186.37-15.42 186.82-15.87L186.82-15.87L187.39-16.58L187.39-16.58Q194.69-24.77 195.71-26.50L195.71-26.50L195.71-26.50Q196.67-27.97 198.53-29.06L198.53-29.06L198.53-29.06Q200.32-30.08 202.75-30.08L202.75-30.08L202.75-30.08Q203.39-30.08 203.39-29.57L203.39-29.57L203.39-29.57Q203.39-29.25 202.88-28.99L202.88-28.99L202.88-28.99Q202.69-28.93 202.40-28.70L202.40-28.70L202.40-28.70Q202.11-28.48 201.38-27.65L201.38-27.65L201.38-27.65Q200.64-26.82 200.06-25.73L200.06-25.73L200.06-25.73Q199.49-24.64 199.04-22.69L199.04-22.69L199.04-22.69Q198.59-20.74 198.59-18.37L198.59-18.37L198.59-18.37Q198.59-11.01 197.18-7.30Z" fill="#444"></path></g></g><style>text {
  font-size: 64px;
  font-family: Arial Black;
  dominant-baseline: central;
  text-anchor: middle;
}</style></svg>